<svg xmlns="http://www.w3.org/2000/svg" width="24" height="24" viewBox="0 0 24 24">
  <defs>
    <style>
      .cls-1 {
        fill: #71d327;
      }
    </style>
  </defs>
  <path id="パス_29" data-name="パス 29" class="cls-1" d="M2374.427,799.241l8.522-8.522a1.239,1.239,0,0,0,0-1.753l-1.362-1.362a1.24,1.24,0,0,0-1.753,0l-8.522,8.522-8.522-8.522a1.24,1.24,0,0,0-1.753,0l-1.362,1.362a1.24,1.24,0,0,0,0,1.753l8.522,8.522-8.522,8.522a1.24,1.24,0,0,0,0,1.753l1.362,1.362a1.24,1.24,0,0,0,1.753,0l8.522-8.522,8.522,8.522a1.24,1.24,0,0,0,1.753,0l1.362-1.362a1.239,1.239,0,0,0,0-1.753Z" transform="translate(-2359.312 -787.241)"/>
</svg>
