<svg xmlns="http://www.w3.org/2000/svg" width="26.314" height="26.314" viewBox="0 0 26.314 26.314">
  <defs>
    <style>
      .cls-1 {
        fill: #969ea2;
      }
    </style>
  </defs>
  <path id="close_btn" class="cls-1" d="M2375.884,800.4l9.343-9.343a1.359,1.359,0,0,0,0-1.922l-1.493-1.494a1.359,1.359,0,0,0-1.922,0l-9.343,9.343-9.344-9.343a1.359,1.359,0,0,0-1.922,0l-1.494,1.494a1.359,1.359,0,0,0,0,1.922l9.344,9.343-9.344,9.343a1.359,1.359,0,0,0,0,1.922l1.494,1.494a1.359,1.359,0,0,0,1.922,0l9.344-9.343,9.343,9.343a1.359,1.359,0,0,0,1.922,0l1.493-1.494a1.358,1.358,0,0,0,0-1.922Z" transform="translate(-2359.312 -787.241)"/>
</svg>
