<?xml version="1.0" encoding="utf-8"?>
<!-- Generator: Adobe Illustrator 23.1.1, SVG Export Plug-In . SVG Version: 6.00 Build 0)  -->
<svg version="1.1" id="レイヤー_1" xmlns="http://www.w3.org/2000/svg" xmlns:xlink="http://www.w3.org/1999/xlink" x="0px"
	 y="0px" viewBox="0 0 150.1 33.2" style="enable-background:new 0 0 150.1 33.2;" xml:space="preserve">
<style type="text/css">
	.st0{fill:#FFFFFF;}
</style>
<g>
	<path class="st0" d="M71.6,11.9l-0.2-0.1c-4.6-1.5-9.5-2.3-14.3-2.3V2c0-0.5-0.4-1-1-1H52c-0.5,0-1,0.4-1,1v29.5
		c0,0.5,0.4,0.9,0.9,0.9h4.2c0.5,0,0.9-0.4,0.9-0.9v-16c4.7,0,9.5,0.8,14,2.2l0,0c0.1,0,0.1,0,0.2,0c0.5,0,0.9-0.4,1-0.9v-4.1
		C72.1,12.3,71.9,12,71.6,11.9z"/>
	<path class="st0" d="M43.8,26.6c-0.2-0.1-0.3-0.2-0.5-0.2H33.1c-2.7,0-4.9-2.2-4.9-4.9v-8.9h15.1c0.5,0,1-0.4,1-1V7.5
		c0-0.5-0.4-1-1-1H28.2V2c0-0.5-0.4-1-1-1h-4c-0.5,0-1,0.4-1,1v19c0,4.2,2.3,8.1,6,10.1c1.7,0.9,3.6,1.4,5.6,1.4c0.3,0,0.6,0,0.9,0
		h8.9c0.4-0.1,0.7-0.5,0.7-0.9v-4.2C44.3,27,44.1,26.7,43.8,26.6z"/>
	<path class="st0" d="M98.9,7.5c0-0.5-0.4-1-1-1h-4.1c-0.5,0-1,0.4-1,1v14.6c-0.3,2.5-2.4,4.3-4.9,4.3h-9c-0.1,0-0.2,0-0.2,0
		c-0.1,0-0.2,0-0.2,0c-0.4,0.1-0.7,0.5-0.7,0.9v4.1c0,0.5,0.4,1,1,1l0,0h8.5c0.2,0,0.5,0,0.7,0c1.7-0.1,3.4-0.6,4.9-1.4
		c3.5-1.9,5.8-5.6,6-9.6c0-0.2,0-0.4,0-0.5s0-0.4,0-0.5L98.9,7.5z"/>
	<path class="st0" d="M78.9,6.9h8.3c0.5,0,1-0.4,1-1V1.8c0-0.5-0.4-1-1-1h-8.3c-0.5,0-1,0.4-1,1V6C77.9,6.5,78.3,6.9,78.9,6.9z"/>
	<path class="st0" d="M78.9,15.5L78.9,15.5h8.3c0.5,0,1-0.4,1-1v-4.1c0-0.5-0.4-1-1-1h-8.3c-0.5,0-1,0.4-1,1v4.1
		C77.9,15.1,78.3,15.5,78.9,15.5z"/>
	<path class="st0" d="M125.7,0.9h-19.1c-0.5,0-1,0.4-1,1v4c0,0.5,0.4,1,1,1h15.7c0,1.5-1.2,2.7-2.7,2.7h-0.1c-0.5,0-1,0.4-1,1V14
		c0,0.4,0.3,0.8,0.6,0.9c0.1,0,0.2,0.1,0.3,0.1h0.6c3.4,0,6.5-2.2,7.6-5.4c0.3-0.9,0.4-1.7,0.4-2.7v-6L125.7,0.9z"/>
	<path class="st0" d="M117.3,8.7L117.3,8.7h-5.2v0.9l0,0l0,0v11.8c0,2.7-2.2,4.9-4.9,4.9h-0.7c-0.1,0-0.2,0-0.3,0
		c-0.4,0.1-0.7,0.5-0.7,0.9v4.1c0,0.4,0.3,0.8,0.6,0.9c0.2,0.1,0.4,0.1,0.6,0.1c2.9,0,5.6-1.1,7.7-3c2.1-1.9,3.4-4.5,3.7-7.3
		c0-0.4,0.1-0.9,0.1-1.3V9.6C118.3,9.1,117.9,8.7,117.3,8.7z"/>
</g>
</svg>
