<svg xmlns="http://www.w3.org/2000/svg" width="25.268" height="26.314" viewBox="0 0 25.268 26.314">
  <defs>
    <style>
      .cls-1 {
        fill: #71d327;
      }
    </style>
  </defs>
  <path id="パス_10" data-name="パス 10" class="cls-1" d="M2375.226,800.4l8.972-9.343a1.4,1.4,0,0,0,0-1.922l-1.434-1.494a1.269,1.269,0,0,0-1.845,0l-8.972,9.343-8.972-9.343a1.269,1.269,0,0,0-1.845,0l-1.434,1.494a1.4,1.4,0,0,0,0,1.922l8.972,9.343-8.972,9.343a1.4,1.4,0,0,0,0,1.922l1.434,1.494a1.269,1.269,0,0,0,1.845,0l8.972-9.343,8.972,9.343a1.269,1.269,0,0,0,1.845,0l1.434-1.494a1.4,1.4,0,0,0,0-1.922Z" transform="translate(-2359.312 -787.241)"/>
</svg>
