<?xml version="1.0" encoding="utf-8"?>
<!-- Generator: Adobe Illustrator 23.0.2, SVG Export Plug-In . SVG Version: 6.00 Build 0)  -->
<svg version="1.1" id="レイヤー_1" xmlns="http://www.w3.org/2000/svg" xmlns:xlink="http://www.w3.org/1999/xlink" x="0px"
	 y="0px" viewBox="0 0 7.5 4.8" style="enable-background:new 0 0 7.5 4.8;" xml:space="preserve">
<title>icon_select_arrow-black</title>
<g>
	<g id="レイヤー_1-2">
		<path d="M7.3,3.4c0.2,0.2,0.2,0.6,0,0.8c0,0,0,0,0,0L6.8,4.7C6.6,4.9,6.2,4.9,6,4.7c0,0,0,0,0,0L3.7,2.4L1.5,4.7
			c-0.2,0.2-0.5,0.2-0.8,0c0,0,0,0,0,0L0.2,4.2c-0.2-0.2-0.2-0.6,0-0.8l3.2-3.2c0.2-0.2,0.6-0.2,0.8,0L7.3,3.4z"/>
	</g>
</g>
</svg>
