<?xml version="1.0" encoding="utf-8"?>
<!-- Generator: Adobe Illustrator 20.1.0, SVG Export Plug-In . SVG Version: 6.00 Build 0)  -->
<svg version="1.1" id="レイヤー_1" xmlns="http://www.w3.org/2000/svg" xmlns:xlink="http://www.w3.org/1999/xlink" x="0px"
	 y="0px" viewBox="0 0 200.5 50" style="enable-background:new 0 0 200.5 50;" xml:space="preserve">
<style type="text/css">
	.st0{fill:none;}
	.st1{enable-background:new    ;}
	.st2{fill:#74C13A;}
	.st3{fill:none;stroke:#212240;stroke-width:2;stroke-dasharray:2,3;}
</style>
<g id="グループ化_204" transform="translate(-622 -465)">
	<path id="長方形_766" class="st0" d="M630,465h184c4.4,0,8,3.6,8,8v34c0,4.4-3.6,8-8,8H630c-4.4,0-8-3.6-8-8v-34
		C622,468.6,625.6,465,630,465z"/>
	<g class="st1">
		<path class="st2" d="M789.3,488.3c-0.4-0.4-0.4-1,0-1.3l0.9-0.9c0.4-0.4,1-0.4,1.3,0l3.8,3.8l3.8-3.8c0.4-0.4,1-0.4,1.3,0l0.9,0.9
			c0.4,0.4,0.4,1,0,1.3l-5.3,5.3c-0.4,0.4-1,0.4-1.3,0L789.3,488.3z"/>
	</g>
	<line id="線_40" class="st3" x1="821.5" y1="505.5" x2="821.5" y2="472.5"/>
</g>
</svg>
